<svg viewBox="-70.71227184225619 -500.0 141.4245436845124 510.0" xmlns="http://www.w3.org/2000/svg">
<line x1="0" y1="0" x2="6.123233995736766E-16" y2="-10.0" stroke="black" stroke-width="1" vector-effect="non-scaling-stroke" />
<line x1="6.123233995736766E-16" y1="-10.0" x2="4.336590845875445" y2="-19.010770213220916" stroke="black" stroke-width="1" vector-effect="non-scaling-stroke" />
<line x1="4.336590845875445" y1="-19.010770213220916" x2="8.67318169175089" y2="-28.02154042644183" stroke="black" stroke-width="2" vector-effect="non-scaling-stroke" />
<line x1="6.123233995736766E-16" y1="-10.0" x2="1.2246467991473533E-15" y2="-20.0" stroke="black" stroke-width="1" vector-effect="non-scaling-stroke" />
<line x1="1.2246467991473533E-15" y1="-20.0" x2="-4.336590845875443" y2="-29.010770213220916" stroke="black" stroke-width="1" vector-effect="non-scaling-stroke" />
<line x1="-4.336590845875443" y1="-29.010770213220916" x2="-8.673181691750887" y2="-38.02154042644183" stroke="black" stroke-width="2" vector-effect="non-scaling-stroke" />
<line x1="1.2246467991473533E-15" y1="-20.0" x2="1.83697019872103E-15" y2="-30.0" stroke="black" stroke-width="1" vector-effect="non-scaling-stroke" />
<line x1="1.83697019872103E-15" y1="-30.0" x2="2.4492935982947065E-15" y2="-40.0" stroke="black" stroke-width="2" vector-effect="non-scaling-stroke" />
<line x1="2.4492935982947065E-15" y1="-40.0" x2="3.061616997868383E-15" y2="-50.0" stroke="black" stroke-width="2" vector-effect="non-scaling-stroke" />
<line x1="3.061616997868383E-15" y1="-50.0" x2="3.67394039744206E-15" y2="-60.0" stroke="black" stroke-width="1" vector-effect="non-scaling-stroke" />
<line x1="3.67394039744206E-15" y1="-60.0" x2="4.2862637970157365E-15" y2="-70.0" stroke="black" stroke-width="1" vector-effect="non-scaling-stroke" />
<line x1="4.2862637970157365E-15" y1="-70.0" x2="4.336590845875449" y2="-79.01077021322092" stroke="black" stroke-width="1" vector-effect="non-scaling-stroke" />
<line x1="4.336590845875449" y1="-79.01077021322092" x2="12.151795570063637" y2="-85.24956618031479" stroke="black" stroke-width="1" vector-effect="non-scaling-stroke" />
<line x1="12.151795570063637" y1="-85.24956618031479" x2="19.967000294251825" y2="-91.48836214740865" stroke="black" stroke-width="2" vector-effect="non-scaling-stroke" />
<line x1="4.336590845875449" y1="-79.01077021322092" x2="8.673181691750894" y2="-88.02154042644185" stroke="black" stroke-width="1" vector-effect="non-scaling-stroke" />
<line x1="8.673181691750894" y1="-88.02154042644185" x2="8.673181691750894" y2="-98.02154042644185" stroke="black" stroke-width="1" vector-effect="non-scaling-stroke" />
<line x1="8.673181691750894" y1="-98.02154042644185" x2="8.673181691750894" y2="-108.02154042644185" stroke="black" stroke-width="2" vector-effect="non-scaling-stroke" />
<line x1="8.673181691750894" y1="-88.02154042644185" x2="13.00977253762634" y2="-97.03231063966277" stroke="black" stroke-width="1" vector-effect="non-scaling-stroke" />
<line x1="13.00977253762634" y1="-97.03231063966277" x2="17.346363383501785" y2="-106.04308085288369" stroke="black" stroke-width="2" vector-effect="non-scaling-stroke" />
<line x1="17.346363383501785" y1="-106.04308085288369" x2="21.68295422937723" y2="-115.05385106610461" stroke="black" stroke-width="2" vector-effect="non-scaling-stroke" />
<line x1="21.68295422937723" y1="-115.05385106610461" x2="26.019545075252676" y2="-124.06462127932554" stroke="black" stroke-width="1" vector-effect="non-scaling-stroke" />
<line x1="26.019545075252676" y1="-124.06462127932554" x2="30.35613592112812" y2="-133.07539149254646" stroke="black" stroke-width="1" vector-effect="non-scaling-stroke" />
<line x1="30.35613592112812" y1="-133.07539149254646" x2="34.69272676700356" y2="-142.08616170576738" stroke="black" stroke-width="2" vector-effect="non-scaling-stroke" />
<line x1="34.69272676700356" y1="-142.08616170576738" x2="42.507931491191755" y2="-148.32495767286125" stroke="black" stroke-width="1" vector-effect="non-scaling-stroke" />
<line x1="42.507931491191755" y1="-148.32495767286125" x2="50.32313621537995" y2="-154.5637536399551" stroke="black" stroke-width="2" vector-effect="non-scaling-stroke" />
<line x1="34.69272676700356" y1="-142.08616170576738" x2="39.029317612879005" y2="-151.0969319189883" stroke="black" stroke-width="1" vector-effect="non-scaling-stroke" />
<line x1="39.029317612879005" y1="-151.0969319189883" x2="39.029317612879005" y2="-161.0969319189883" stroke="black" stroke-width="1" vector-effect="non-scaling-stroke" />
<line x1="39.029317612879005" y1="-161.0969319189883" x2="39.029317612879005" y2="-171.0969319189883" stroke="black" stroke-width="2" vector-effect="non-scaling-stroke" />
<line x1="39.029317612879005" y1="-151.0969319189883" x2="43.36590845875445" y2="-160.10770213220923" stroke="black" stroke-width="1" vector-effect="non-scaling-stroke" />
<line x1="43.36590845875445" y1="-160.10770213220923" x2="47.70249930462989" y2="-169.11847234543015" stroke="black" stroke-width="2" vector-effect="non-scaling-stroke" />
<line x1="47.70249930462989" y1="-169.11847234543015" x2="52.03909015050533" y2="-178.12924255865107" stroke="black" stroke-width="2" vector-effect="non-scaling-stroke" />
<line x1="52.03909015050533" y1="-178.12924255865107" x2="56.37568099638077" y2="-187.140012771872" stroke="black" stroke-width="1" vector-effect="non-scaling-stroke" />
<line x1="56.37568099638077" y1="-187.140012771872" x2="60.712271842256214" y2="-196.15078298509292" stroke="black" stroke-width="1" vector-effect="non-scaling-stroke" />
<line x1="4.2862637970157365E-15" y1="-70.0" x2="4.898587196589413E-15" y2="-80.0" stroke="black" stroke-width="1" vector-effect="non-scaling-stroke" />
<line x1="4.898587196589413E-15" y1="-80.0" x2="4.33659084587545" y2="-89.01077021322092" stroke="black" stroke-width="1" vector-effect="non-scaling-stroke" />
<line x1="4.33659084587545" y1="-89.01077021322092" x2="8.673181691750894" y2="-98.02154042644185" stroke="black" stroke-width="2" vector-effect="non-scaling-stroke" />
<line x1="4.898587196589413E-15" y1="-80.0" x2="5.5109105961630896E-15" y2="-90.0" stroke="black" stroke-width="1" vector-effect="non-scaling-stroke" />
<line x1="5.5109105961630896E-15" y1="-90.0" x2="-4.336590845875438" y2="-99.01077021322092" stroke="black" stroke-width="1" vector-effect="non-scaling-stroke" />
<line x1="-4.336590845875438" y1="-99.01077021322092" x2="-8.673181691750882" y2="-108.02154042644185" stroke="black" stroke-width="2" vector-effect="non-scaling-stroke" />
<line x1="5.5109105961630896E-15" y1="-90.0" x2="6.123233995736766E-15" y2="-100.0" stroke="black" stroke-width="1" vector-effect="non-scaling-stroke" />
<line x1="6.123233995736766E-15" y1="-100.0" x2="6.735557395310443E-15" y2="-110.0" stroke="black" stroke-width="2" vector-effect="non-scaling-stroke" />
<line x1="6.735557395310443E-15" y1="-110.0" x2="7.34788079488412E-15" y2="-120.0" stroke="black" stroke-width="2" vector-effect="non-scaling-stroke" />
<line x1="7.34788079488412E-15" y1="-120.0" x2="7.960204194457797E-15" y2="-130.0" stroke="black" stroke-width="1" vector-effect="non-scaling-stroke" />
<line x1="7.960204194457797E-15" y1="-130.0" x2="8.572527594031475E-15" y2="-140.0" stroke="black" stroke-width="1" vector-effect="non-scaling-stroke" />
<line x1="8.572527594031475E-15" y1="-140.0" x2="-4.336590845875435" y2="-149.01077021322092" stroke="black" stroke-width="1" vector-effect="non-scaling-stroke" />
<line x1="-4.336590845875435" y1="-149.01077021322092" x2="-4.336590845875434" y2="-159.01077021322092" stroke="black" stroke-width="1" vector-effect="non-scaling-stroke" />
<line x1="-4.336590845875434" y1="-159.01077021322092" x2="-4.336590845875433" y2="-169.01077021322092" stroke="black" stroke-width="2" vector-effect="non-scaling-stroke" />
<line x1="-4.336590845875435" y1="-149.01077021322092" x2="-8.673181691750878" y2="-158.02154042644185" stroke="black" stroke-width="1" vector-effect="non-scaling-stroke" />
<line x1="-8.673181691750878" y1="-158.02154042644185" x2="-16.48838641593907" y2="-164.2603363935357" stroke="black" stroke-width="1" vector-effect="non-scaling-stroke" />
<line x1="-16.48838641593907" y1="-164.2603363935357" x2="-24.303591140127256" y2="-170.49913236062957" stroke="black" stroke-width="2" vector-effect="non-scaling-stroke" />
<line x1="-8.673181691750878" y1="-158.02154042644185" x2="-13.009772537626322" y2="-167.03231063966277" stroke="black" stroke-width="1" vector-effect="non-scaling-stroke" />
<line x1="-13.009772537626322" y1="-167.03231063966277" x2="-17.346363383501767" y2="-176.0430808528837" stroke="black" stroke-width="2" vector-effect="non-scaling-stroke" />
<line x1="-17.346363383501767" y1="-176.0430808528837" x2="-21.68295422937721" y2="-185.0538510661046" stroke="black" stroke-width="2" vector-effect="non-scaling-stroke" />
<line x1="-21.68295422937721" y1="-185.0538510661046" x2="-26.01954507525265" y2="-194.06462127932554" stroke="black" stroke-width="1" vector-effect="non-scaling-stroke" />
<line x1="-26.01954507525265" y1="-194.06462127932554" x2="-30.356135921128093" y2="-203.07539149254646" stroke="black" stroke-width="1" vector-effect="non-scaling-stroke" />
<line x1="-30.356135921128093" y1="-203.07539149254646" x2="-34.692726767003535" y2="-212.08616170576738" stroke="black" stroke-width="2" vector-effect="non-scaling-stroke" />
<line x1="-34.692726767003535" y1="-212.08616170576738" x2="-34.692726767003535" y2="-222.08616170576738" stroke="black" stroke-width="1" vector-effect="non-scaling-stroke" />
<line x1="-34.692726767003535" y1="-222.08616170576738" x2="-34.692726767003535" y2="-232.08616170576738" stroke="black" stroke-width="2" vector-effect="non-scaling-stroke" />
<line x1="-34.692726767003535" y1="-212.08616170576738" x2="-39.02931761287898" y2="-221.0969319189883" stroke="black" stroke-width="1" vector-effect="non-scaling-stroke" />
<line x1="-39.02931761287898" y1="-221.0969319189883" x2="-46.84452233706716" y2="-227.33572788608217" stroke="black" stroke-width="1" vector-effect="non-scaling-stroke" />
<line x1="-46.84452233706716" y1="-227.33572788608217" x2="-54.65972706125535" y2="-233.57452385317603" stroke="black" stroke-width="2" vector-effect="non-scaling-stroke" />
<line x1="-39.02931761287898" y1="-221.0969319189883" x2="-43.36590845875442" y2="-230.10770213220923" stroke="black" stroke-width="1" vector-effect="non-scaling-stroke" />
<line x1="-43.36590845875442" y1="-230.10770213220923" x2="-47.70249930462986" y2="-239.11847234543015" stroke="black" stroke-width="2" vector-effect="non-scaling-stroke" />
<line x1="-47.70249930462986" y1="-239.11847234543015" x2="-52.0390901505053" y2="-248.12924255865107" stroke="black" stroke-width="2" vector-effect="non-scaling-stroke" />
<line x1="-52.0390901505053" y1="-248.12924255865107" x2="-56.375680996380744" y2="-257.14001277187197" stroke="black" stroke-width="1" vector-effect="non-scaling-stroke" />
<line x1="-56.375680996380744" y1="-257.14001277187197" x2="-60.712271842256186" y2="-266.15078298509286" stroke="black" stroke-width="1" vector-effect="non-scaling-stroke" />
<line x1="8.572527594031475E-15" y1="-140.0" x2="9.184850993605152E-15" y2="-150.0" stroke="black" stroke-width="1" vector-effect="non-scaling-stroke" />
<line x1="9.184850993605152E-15" y1="-150.0" x2="4.336590845875453" y2="-159.01077021322092" stroke="black" stroke-width="1" vector-effect="non-scaling-stroke" />
<line x1="4.336590845875453" y1="-159.01077021322092" x2="8.673181691750898" y2="-168.02154042644185" stroke="black" stroke-width="2" vector-effect="non-scaling-stroke" />
<line x1="9.184850993605152E-15" y1="-150.0" x2="9.797174393178829E-15" y2="-160.0" stroke="black" stroke-width="1" vector-effect="non-scaling-stroke" />
<line x1="9.797174393178829E-15" y1="-160.0" x2="-4.336590845875434" y2="-169.01077021322092" stroke="black" stroke-width="1" vector-effect="non-scaling-stroke" />
<line x1="-4.336590845875434" y1="-169.01077021322092" x2="-8.673181691750877" y2="-178.02154042644185" stroke="black" stroke-width="2" vector-effect="non-scaling-stroke" />
<line x1="9.797174393178829E-15" y1="-160.0" x2="1.0409497792752507E-14" y2="-170.0" stroke="black" stroke-width="1" vector-effect="non-scaling-stroke" />
<line x1="1.0409497792752507E-14" y1="-170.0" x2="1.1021821192326184E-14" y2="-180.0" stroke="black" stroke-width="2" vector-effect="non-scaling-stroke" />
<line x1="1.1021821192326184E-14" y1="-180.0" x2="1.1634144591899861E-14" y2="-190.0" stroke="black" stroke-width="2" vector-effect="non-scaling-stroke" />
<line x1="1.1634144591899861E-14" y1="-190.0" x2="1.2246467991473538E-14" y2="-200.0" stroke="black" stroke-width="1" vector-effect="non-scaling-stroke" />
<line x1="1.2246467991473538E-14" y1="-200.0" x2="1.2858791391047216E-14" y2="-210.0" stroke="black" stroke-width="1" vector-effect="non-scaling-stroke" />
<line x1="1.2858791391047216E-14" y1="-210.0" x2="1.3471114790620893E-14" y2="-220.0" stroke="black" stroke-width="2" vector-effect="non-scaling-stroke" />
<line x1="1.3471114790620893E-14" y1="-220.0" x2="4.336590845875458" y2="-229.01077021322092" stroke="black" stroke-width="1" vector-effect="non-scaling-stroke" />
<line x1="4.336590845875458" y1="-229.01077021322092" x2="8.673181691750901" y2="-238.02154042644185" stroke="black" stroke-width="2" vector-effect="non-scaling-stroke" />
<line x1="1.3471114790620893E-14" y1="-220.0" x2="1.408343819019457E-14" y2="-230.0" stroke="black" stroke-width="1" vector-effect="non-scaling-stroke" />
<line x1="1.408343819019457E-14" y1="-230.0" x2="-4.336590845875429" y2="-239.01077021322092" stroke="black" stroke-width="1" vector-effect="non-scaling-stroke" />
<line x1="-4.336590845875429" y1="-239.01077021322092" x2="-8.673181691750873" y2="-248.02154042644185" stroke="black" stroke-width="2" vector-effect="non-scaling-stroke" />
<line x1="1.408343819019457E-14" y1="-230.0" x2="1.4695761589768246E-14" y2="-240.0" stroke="black" stroke-width="1" vector-effect="non-scaling-stroke" />
<line x1="1.4695761589768246E-14" y1="-240.0" x2="1.5308084989341922E-14" y2="-250.0" stroke="black" stroke-width="2" vector-effect="non-scaling-stroke" />
<line x1="1.5308084989341922E-14" y1="-250.0" x2="1.5920408388915598E-14" y2="-260.0" stroke="black" stroke-width="2" vector-effect="non-scaling-stroke" />
<line x1="1.5920408388915598E-14" y1="-260.0" x2="1.6532731788489273E-14" y2="-270.0" stroke="black" stroke-width="1" vector-effect="non-scaling-stroke" />
<line x1="1.6532731788489273E-14" y1="-270.0" x2="1.714505518806295E-14" y2="-280.0" stroke="black" stroke-width="1" vector-effect="non-scaling-stroke" />
<line x1="1.714505518806295E-14" y1="-280.0" x2="1.7757378587636625E-14" y2="-290.0" stroke="black" stroke-width="1" vector-effect="non-scaling-stroke" />
<line x1="1.7757378587636625E-14" y1="-290.0" x2="4.336590845875462" y2="-299.0107702132209" stroke="black" stroke-width="1" vector-effect="non-scaling-stroke" />
<line x1="4.336590845875462" y1="-299.0107702132209" x2="8.673181691750907" y2="-308.0215404264418" stroke="black" stroke-width="2" vector-effect="non-scaling-stroke" />
<line x1="1.7757378587636625E-14" y1="-290.0" x2="1.83697019872103E-14" y2="-300.0" stroke="black" stroke-width="1" vector-effect="non-scaling-stroke" />
<line x1="1.83697019872103E-14" y1="-300.0" x2="-4.336590845875425" y2="-309.0107702132209" stroke="black" stroke-width="1" vector-effect="non-scaling-stroke" />
<line x1="-4.336590845875425" y1="-309.0107702132209" x2="-8.67318169175087" y2="-318.0215404264418" stroke="black" stroke-width="2" vector-effect="non-scaling-stroke" />
<line x1="1.83697019872103E-14" y1="-300.0" x2="1.8982025386783976E-14" y2="-310.0" stroke="black" stroke-width="1" vector-effect="non-scaling-stroke" />
<line x1="1.8982025386783976E-14" y1="-310.0" x2="1.9594348786357652E-14" y2="-320.0" stroke="black" stroke-width="2" vector-effect="non-scaling-stroke" />
<line x1="1.9594348786357652E-14" y1="-320.0" x2="2.0206672185931328E-14" y2="-330.0" stroke="black" stroke-width="2" vector-effect="non-scaling-stroke" />
<line x1="2.0206672185931328E-14" y1="-330.0" x2="2.0818995585505004E-14" y2="-340.0" stroke="black" stroke-width="1" vector-effect="non-scaling-stroke" />
<line x1="2.0818995585505004E-14" y1="-340.0" x2="2.143131898507868E-14" y2="-350.0" stroke="black" stroke-width="1" vector-effect="non-scaling-stroke" />
<line x1="2.143131898507868E-14" y1="-350.0" x2="2.2043642384652355E-14" y2="-360.0" stroke="black" stroke-width="1" vector-effect="non-scaling-stroke" />
<line x1="2.2043642384652355E-14" y1="-360.0" x2="4.336590845875467" y2="-369.0107702132209" stroke="black" stroke-width="1" vector-effect="non-scaling-stroke" />
<line x1="4.336590845875467" y1="-369.0107702132209" x2="8.673181691750912" y2="-378.0215404264418" stroke="black" stroke-width="2" vector-effect="non-scaling-stroke" />
<line x1="2.2043642384652355E-14" y1="-360.0" x2="2.265596578422603E-14" y2="-370.0" stroke="black" stroke-width="1" vector-effect="non-scaling-stroke" />
<line x1="2.265596578422603E-14" y1="-370.0" x2="-4.3365908458754205" y2="-379.0107702132209" stroke="black" stroke-width="1" vector-effect="non-scaling-stroke" />
<line x1="-4.3365908458754205" y1="-379.0107702132209" x2="-8.673181691750864" y2="-388.0215404264418" stroke="black" stroke-width="2" vector-effect="non-scaling-stroke" />
<line x1="2.265596578422603E-14" y1="-370.0" x2="2.3268289183799707E-14" y2="-380.0" stroke="black" stroke-width="1" vector-effect="non-scaling-stroke" />
<line x1="2.3268289183799707E-14" y1="-380.0" x2="2.3880612583373382E-14" y2="-390.0" stroke="black" stroke-width="2" vector-effect="non-scaling-stroke" />
<line x1="2.3880612583373382E-14" y1="-390.0" x2="2.4492935982947058E-14" y2="-400.0" stroke="black" stroke-width="2" vector-effect="non-scaling-stroke" />
<line x1="2.4492935982947058E-14" y1="-400.0" x2="2.5105259382520734E-14" y2="-410.0" stroke="black" stroke-width="1" vector-effect="non-scaling-stroke" />
<line x1="2.5105259382520734E-14" y1="-410.0" x2="2.571758278209441E-14" y2="-420.0" stroke="black" stroke-width="1" vector-effect="non-scaling-stroke" />
<line x1="2.571758278209441E-14" y1="-420.0" x2="2.6329906181668085E-14" y2="-430.0" stroke="black" stroke-width="1" vector-effect="non-scaling-stroke" />
<line x1="2.6329906181668085E-14" y1="-430.0" x2="4.336590845875471" y2="-439.0107702132209" stroke="black" stroke-width="1" vector-effect="non-scaling-stroke" />
<line x1="4.336590845875471" y1="-439.0107702132209" x2="8.673181691750916" y2="-448.0215404264418" stroke="black" stroke-width="2" vector-effect="non-scaling-stroke" />
<line x1="2.6329906181668085E-14" y1="-430.0" x2="2.694222958124176E-14" y2="-440.0" stroke="black" stroke-width="1" vector-effect="non-scaling-stroke" />
<line x1="2.694222958124176E-14" y1="-440.0" x2="-4.336590845875417" y2="-449.0107702132209" stroke="black" stroke-width="1" vector-effect="non-scaling-stroke" />
<line x1="-4.336590845875417" y1="-449.0107702132209" x2="-8.67318169175086" y2="-458.0215404264418" stroke="black" stroke-width="2" vector-effect="non-scaling-stroke" />
<line x1="2.694222958124176E-14" y1="-440.0" x2="2.7554552980815437E-14" y2="-450.0" stroke="black" stroke-width="1" vector-effect="non-scaling-stroke" />
<line x1="2.7554552980815437E-14" y1="-450.0" x2="2.8166876380389112E-14" y2="-460.0" stroke="black" stroke-width="2" vector-effect="non-scaling-stroke" />
<line x1="2.8166876380389112E-14" y1="-460.0" x2="2.877919977996279E-14" y2="-470.0" stroke="black" stroke-width="2" vector-effect="non-scaling-stroke" />
<line x1="2.877919977996279E-14" y1="-470.0" x2="2.939152317953647E-14" y2="-480.0" stroke="black" stroke-width="1" vector-effect="non-scaling-stroke" />
<line x1="2.939152317953647E-14" y1="-480.0" x2="3.000384657911014E-14" y2="-490.0" stroke="black" stroke-width="1" vector-effect="non-scaling-stroke" />
</svg>